# Blender 3.1.0
# www.blender.org
mtllib plauge_doctor_low_02.mtl
o plague_doctor_low
v 0.026951 2.077629 0.149756
v 0.034901 2.096039 0.144576
v 0.012589 2.078697 0.167679
v 0.022862 2.119004 0.148607
v 0.055939 2.095495 0.139626
v 0.065433 2.110037 0.122864
v 0.065934 2.079216 0.133452
v 0.077721 2.076566 0.110001
v 0.064982 2.064133 0.135010
v 0.000002 2.080212 0.174942
v 0.039411 2.057806 0.150908
v 0.039184 2.046768 0.182619
v 0.000002 2.120817 0.154115
v 0.076661 2.042056 0.116332
v 0.075730 2.124021 0.103247
v 0.086571 2.084424 0.086550
v 0.044251 2.170339 0.133032
v 0.000002 2.184246 0.141392
v 0.089622 2.043015 0.079598
v 0.000002 2.065567 0.202266
v 0.071087 2.017853 0.117479
v 0.082023 2.015973 0.076864
v 0.058834 1.990228 0.120733
v 0.069570 1.988661 0.080515
v 0.044678 1.968627 0.128333
v 0.044385 1.959360 0.092866
v 0.028168 1.953454 0.134780
v 0.023511 1.945909 0.101934
v 0.000002 1.945069 0.133840
v 0.000002 1.940439 0.106092
v 0.059792 2.019357 0.174265
v 0.055800 1.992317 0.177404
v 0.045144 1.972208 0.177926
v 0.028006 1.954409 0.177883
v 0.000002 1.946865 0.180268
v 0.032408 2.045291 0.217304
v 0.000002 2.058104 0.224094
v 0.050758 2.022474 0.212335
v 0.052448 1.996235 0.209004
v 0.022755 2.034994 0.254168
v 0.000002 2.042577 0.255761
v 0.012744 2.007334 0.297042
v 0.000002 2.010767 0.297474
v 0.006979 1.972250 0.331885
v 0.000002 1.973009 0.333191
v 0.004805 1.942697 0.352814
v 0.000002 1.942963 0.354407
v 0.001319 1.901485 0.376065
v 0.039835 2.015560 0.251593
v 0.024402 1.999426 0.293411
v 0.044265 1.993362 0.246611
v 0.043747 1.973514 0.206131
v 0.037760 1.969858 0.242171
v 0.026439 1.953531 0.204521
v 0.025581 1.954090 0.240606
v 0.032132 1.980043 0.286829
v 0.029498 1.964008 0.282514
v 0.020397 1.950043 0.276892
v 0.000002 1.945668 0.206148
v 0.000002 1.944510 0.238792
v 0.000002 1.941477 0.274006
v 0.013452 1.969405 0.328545
v 0.019000 1.959411 0.323652
v 0.018641 1.946435 0.317397
v 0.013173 1.936418 0.313605
v 0.000002 1.929463 0.313040
v 0.007651 1.940861 0.350909
v 0.009855 1.938311 0.348363
v 0.011138 1.930646 0.344462
v 0.008344 1.922145 0.341313
v 0.000002 1.916372 0.340379
v 0.001744 1.900598 0.375334
v 0.001969 1.899888 0.374598
v 0.001714 1.899009 0.373649
v 0.061164 2.040670 0.148744
v 0.054666 2.055092 0.143705
v 0.065914 2.018840 0.147149
v 0.057724 1.989855 0.149345
v 0.045613 1.970092 0.153048
v 0.028625 1.954017 0.156335
v 0.000002 1.946921 0.157326
v 0.046460 2.117980 0.138509
v 0.044882 2.099463 0.143338
v 0.061694 2.151496 0.121865
v 0.027834 2.087856 0.147529
v 0.016862 2.094912 0.157707
v 0.000002 2.095670 0.163694
v 0.072327 2.097277 0.115704
v 0.062476 2.088235 0.135500
v 0.082116 2.106951 0.093470
v 0.066566 2.070634 0.133542
v 0.078585 2.061588 0.112064
v 0.090306 2.063531 0.082624
v 0.030732 2.065386 0.152546
v 0.022050 2.063457 0.174828
v 0.000002 2.073350 0.184886
v 0.071058 2.118598 0.112030
v 0.082014 2.079988 0.097922
v 0.033453 2.145655 0.138549
v 0.000002 2.149572 0.146531
v 0.083142 2.042536 0.097965
v 0.076555 2.016913 0.097171
v 0.064202 1.989445 0.100624
v 0.044532 1.963993 0.110600
v 0.025839 1.949682 0.118357
v 0.000002 1.942754 0.119966
v 0.054606 2.134948 0.128171
v 0.077490 2.102372 0.103523
v 0.084163 2.061693 0.097159
v 0.001270 1.898317 0.373196
v 0.000002 1.897852 0.372841
v 0.000002 1.901792 0.376591
v -0.026948 2.077629 0.149756
v -0.034898 2.096039 0.144576
v -0.012586 2.078697 0.167679
v -0.022858 2.119004 0.148607
v -0.055935 2.095495 0.139626
v -0.065430 2.110037 0.122864
v -0.065931 2.079216 0.133452
v -0.077718 2.076566 0.110001
v -0.064978 2.064133 0.135010
v -0.039408 2.057806 0.150908
v -0.039181 2.046768 0.182619
v -0.076658 2.042056 0.116332
v -0.075727 2.124021 0.103247
v -0.086568 2.084424 0.086550
v -0.044247 2.170339 0.133032
v -0.089619 2.043015 0.079598
v -0.071084 2.017853 0.117479
v -0.082020 2.015973 0.076864
v -0.058830 1.990228 0.120733
v -0.069567 1.988661 0.080515
v -0.044674 1.968627 0.128333
v -0.044382 1.959360 0.092866
v -0.028165 1.953454 0.134780
v -0.023507 1.945909 0.101934
v -0.059788 2.019357 0.174265
v -0.055797 1.992317 0.177404
v -0.045140 1.972208 0.177926
v -0.028002 1.954409 0.177883
v -0.032404 2.045291 0.217304
v -0.050754 2.022474 0.212335
v -0.052444 1.996235 0.209004
v -0.022752 2.034994 0.254168
v -0.012741 2.007334 0.297042
v -0.006976 1.972250 0.331885
v -0.004802 1.942697 0.352814
v -0.001315 1.901485 0.376065
v -0.039832 2.015560 0.251593
v -0.024399 1.999426 0.293411
v -0.044262 1.993362 0.246611
v -0.043743 1.973514 0.206131
v -0.037756 1.969858 0.242171
v -0.026435 1.953531 0.204521
v -0.025577 1.954090 0.240606
v -0.032128 1.980043 0.286829
v -0.029494 1.964008 0.282514
v -0.020394 1.950043 0.276892
v -0.013449 1.969405 0.328545
v -0.018997 1.959411 0.323652
v -0.018638 1.946435 0.317397
v -0.013170 1.936418 0.313605
v -0.007648 1.940861 0.350909
v -0.009851 1.938311 0.348363
v -0.011134 1.930646 0.344462
v -0.008340 1.922145 0.341313
v -0.001740 1.900598 0.375334
v -0.001965 1.899888 0.374598
v -0.001711 1.899009 0.373649
v -0.061160 2.040670 0.148744
v -0.054662 2.055092 0.143705
v -0.065911 2.018840 0.147149
v -0.057720 1.989855 0.149345
v -0.045610 1.970092 0.153048
v -0.028621 1.954017 0.156335
v -0.046456 2.117980 0.138509
v -0.044878 2.099463 0.143338
v -0.061690 2.151496 0.121865
v -0.027831 2.087856 0.147529
v -0.016858 2.094912 0.157707
v -0.072324 2.097277 0.115704
v -0.062473 2.088235 0.135500
v -0.082112 2.106951 0.093470
v -0.066562 2.070634 0.133542
v -0.078582 2.061588 0.112064
v -0.090302 2.063531 0.082624
v -0.030728 2.065386 0.152546
v -0.022046 2.063457 0.174828
v -0.071055 2.118598 0.112030
v -0.082010 2.079988 0.097922
v -0.033449 2.145655 0.138549
v -0.083138 2.042536 0.097965
v -0.076552 2.016913 0.097171
v -0.064199 1.989445 0.100624
v -0.044528 1.963993 0.110600
v -0.025836 1.949682 0.118357
v -0.054603 2.134948 0.128171
v -0.077487 2.102372 0.103523
v -0.084160 2.061693 0.097159
v -0.001266 1.898317 0.373196
vn 0.6745 0.1067 0.7305
vn 0.4593 0.0814 0.8846
vn 0.3541 0.2076 0.9119
vn 0.5218 0.2458 0.8169
vn 0.5164 0.1987 0.8329
vn 0.4532 0.1897 0.8710
vn 0.6900 0.2609 0.6751
vn 0.7622 0.1945 0.6174
vn 0.8684 0.1474 0.4734
vn 0.8362 0.1833 0.5169
vn 0.8824 0.1229 0.4541
vn 0.9072 0.1080 0.4065
vn 0.9100 0.0346 0.4131
vn 0.8783 0.0531 0.4751
vn 0.8406 0.0878 0.5344
vn 0.9225 -0.0471 0.3831
vn 0.6851 0.6352 0.3565
vn 0.6036 0.6921 0.3957
vn 0.6858 0.6749 0.2725
vn 0.6078 0.7187 0.3377
vn 0.7334 0.4671 0.4939
vn 0.8442 0.3342 0.4191
vn -0.0000 0.2907 0.9568
vn -0.0000 0.4274 0.9040
vn 0.8919 0.0939 0.4424
vn 0.9157 0.0898 0.3917
vn 0.9098 0.0769 0.4078
vn 0.8933 0.0710 0.4438
vn 0.6287 0.1065 0.7703
vn 0.6200 0.0288 0.7841
vn 0.3655 0.0835 0.9271
vn 0.3628 0.1520 0.9194
vn -0.0000 0.1344 0.9909
vn -0.0000 0.1941 0.9810
vn 0.9318 0.0222 0.3624
vn 0.9363 -0.1457 0.3195
vn 0.9320 -0.1672 0.3216
vn 0.9264 0.0116 0.3765
vn -0.0000 0.8387 0.5445
vn -0.0000 0.9506 0.3105
vn 0.9389 -0.2383 0.2483
vn 0.9113 -0.3087 0.2726
vn 0.8843 -0.4430 0.1476
vn 0.8560 -0.4656 0.2246
vn 0.7687 -0.6336 0.0873
vn 0.7323 -0.6601 0.1674
vn 0.4987 -0.8625 0.0866
vn 0.4631 -0.8720 0.1585
vn -0.0000 -0.9932 0.1163
vn -0.0000 -0.9843 0.1767
vn 0.9578 0.1645 0.2356
vn 0.9691 -0.0555 0.2405
vn 0.9476 -0.2907 0.1324
vn 0.9149 -0.3944 0.0866
vn 0.8146 -0.5753 0.0734
vn 0.7842 -0.6192 0.0412
vn 0.5138 -0.8576 0.0222
vn 0.4958 -0.8678 0.0337
vn -0.0000 -0.9999 -0.0111
vn -0.0000 -0.9995 0.0306
vn -0.0000 0.9493 0.3143
vn 0.6106 0.7451 0.2684
vn 0.9129 0.3330 0.2359
vn 0.9694 -0.1699 0.1772
vn -0.0000 0.8675 0.4974
vn 0.5197 0.7242 0.4533
vn -0.0000 0.7524 0.6587
vn 0.4250 0.6598 0.6197
vn -0.0000 0.6300 0.7766
vn 0.4037 0.5627 0.7214
vn -0.0000 0.5191 0.8547
vn 0.4826 0.4446 0.7546
vn 0.8496 0.3712 0.3747
vn 0.7632 0.4048 0.5036
vn 0.9662 -0.0744 0.2467
vn 0.8526 -0.5146 0.0906
vn 0.8800 -0.4614 0.1123
vn 0.5399 -0.8416 0.0137
vn 0.6008 -0.7993 0.0135
vn 0.9485 -0.0051 0.3169
vn 0.9170 -0.3780 0.1272
vn 0.6563 -0.7521 -0.0592
vn -0.0000 -0.9998 -0.0173
vn -0.0000 -0.9994 -0.0359
vn -0.0000 -0.9853 -0.1709
vn 0.7251 0.3704 0.5805
vn 0.9272 0.0538 0.3707
vn 0.9454 -0.3036 0.1185
vn 0.7150 -0.6809 -0.1585
vn -0.0000 -0.9378 -0.3470
vn 0.7644 0.2784 0.5815
vn 0.9176 0.0770 0.3900
vn 0.9700 -0.2035 0.1330
vn 0.7792 -0.5912 -0.2081
vn -0.0000 -0.8889 -0.4581
vn 0.4467 -0.0709 0.8919
vn 0.5569 -0.2836 0.7806
vn 0.6633 -0.3557 0.6584
vn 0.7107 -0.5175 0.4765
vn 0.8139 0.0949 0.5732
vn 0.8324 0.0552 0.5514
vn 0.5861 0.5007 0.6369
vn -0.0000 0.6603 0.7510
vn 0.7648 0.3315 0.5525
vn 0.4477 -0.8793 0.1621
vn -0.0000 -0.9842 0.1772
vn 0.7191 -0.6728 0.1737
vn 0.8606 -0.4534 0.2320
vn 0.9083 -0.3175 0.2724
vn -0.0000 -0.0386 0.9993
vn 0.5699 -0.7870 0.2365
vn -0.0000 -0.9975 0.0702
vn -0.6745 0.1067 0.7305
vn -0.5218 0.2458 0.8169
vn -0.3541 0.2076 0.9119
vn -0.4593 0.0814 0.8846
vn -0.5164 0.1987 0.8329
vn -0.7622 0.1945 0.6174
vn -0.6900 0.2609 0.6751
vn -0.4532 0.1897 0.8710
vn -0.8684 0.1474 0.4734
vn -0.9072 0.1080 0.4065
vn -0.8824 0.1229 0.4541
vn -0.8362 0.1833 0.5169
vn -0.9100 0.0346 0.4131
vn -0.9225 -0.0471 0.3831
vn -0.8406 0.0878 0.5344
vn -0.8783 0.0531 0.4751
vn -0.6851 0.6352 0.3565
vn -0.6078 0.7187 0.3377
vn -0.6858 0.6749 0.2725
vn -0.6036 0.6921 0.3957
vn -0.7334 0.4671 0.4939
vn -0.8442 0.3342 0.4191
vn -0.8919 0.0939 0.4424
vn -0.8933 0.0710 0.4438
vn -0.9098 0.0769 0.4078
vn -0.9157 0.0898 0.3917
vn -0.6287 0.1065 0.7703
vn -0.3628 0.1520 0.9194
vn -0.3655 0.0835 0.9271
vn -0.6200 0.0288 0.7841
vn -0.9318 0.0222 0.3624
vn -0.9264 0.0116 0.3765
vn -0.9320 -0.1672 0.3216
vn -0.9363 -0.1457 0.3195
vn -0.9113 -0.3087 0.2726
vn -0.9389 -0.2383 0.2483
vn -0.8560 -0.4656 0.2246
vn -0.8843 -0.4430 0.1476
vn -0.7323 -0.6601 0.1674
vn -0.7687 -0.6336 0.0873
vn -0.4631 -0.8720 0.1585
vn -0.4987 -0.8625 0.0866
vn -0.9691 -0.0555 0.2405
vn -0.9578 0.1645 0.2356
vn -0.9149 -0.3944 0.0866
vn -0.9476 -0.2907 0.1324
vn -0.7842 -0.6192 0.0412
vn -0.8146 -0.5753 0.0734
vn -0.4958 -0.8678 0.0337
vn -0.5138 -0.8576 0.0222
vn -0.6106 0.7451 0.2684
vn -0.9129 0.3330 0.2359
vn -0.9694 -0.1699 0.1772
vn -0.5197 0.7242 0.4533
vn -0.4250 0.6598 0.6197
vn -0.4037 0.5627 0.7214
vn -0.4826 0.4446 0.7546
vn -0.8496 0.3712 0.3747
vn -0.7632 0.4048 0.5036
vn -0.9662 -0.0744 0.2467
vn -0.8526 -0.5146 0.0906
vn -0.8800 -0.4614 0.1123
vn -0.5399 -0.8416 0.0137
vn -0.6008 -0.7993 0.0135
vn -0.9485 -0.0051 0.3169
vn -0.9170 -0.3780 0.1272
vn -0.6563 -0.7521 -0.0592
vn -0.7251 0.3704 0.5805
vn -0.9272 0.0538 0.3707
vn -0.9454 -0.3036 0.1185
vn -0.7150 -0.6809 -0.1585
vn -0.7644 0.2784 0.5815
vn -0.9176 0.0770 0.3900
vn -0.9700 -0.2035 0.1330
vn -0.7792 -0.5912 -0.2081
vn -0.5570 -0.2836 0.7806
vn -0.4467 -0.0709 0.8919
vn -0.6634 -0.3557 0.6584
vn -0.7108 -0.5175 0.4765
vn -0.8139 0.0949 0.5732
vn -0.8324 0.0552 0.5514
vn -0.5861 0.5007 0.6369
vn -0.7648 0.3315 0.5525
vn -0.4477 -0.8793 0.1621
vn -0.7191 -0.6728 0.1737
vn -0.8606 -0.4534 0.2320
vn -0.9083 -0.3175 0.2724
vn -0.5699 -0.7869 0.2365
vt 0.557539 0.771661
vt 0.556387 0.817104
vt 0.506604 0.743002
vt 0.513386 0.854651
vt 0.599293 0.836100
vt 0.613781 0.881053
vt 0.639358 0.819944
vt 0.683631 0.853574
vt 0.656289 0.789783
vt 0.466993 0.731175
vt 0.602915 0.741399
vt 0.586361 0.658640
vt 0.462528 0.848143
vt 0.731509 0.790654
vt 0.630118 0.923834
vt 0.704664 0.902026
vt 0.532976 0.961743
vt 0.452210 0.971391
vt 0.786491 0.864127
vt 0.466503 0.645640
vt 0.773097 0.745060
vt 0.842506 0.825388
vt 0.822761 0.684661
vt 0.890675 0.766471
vt 0.856122 0.623257
vt 0.935066 0.674164
vt 0.884275 0.569362
vt 0.960202 0.612350
vt 0.936530 0.514508
vt 0.041814 0.566264
vt 0.992155 0.559132
vt 0.002698 0.608450
vt 0.673205 0.634678
vt 0.719976 0.582341
vt 0.759476 0.540664
vt 0.802273 0.494738
vt 0.847498 0.435279
vt 0.104255 0.490098
vt 0.544169 0.584213
vt 0.465265 0.590287
vt 0.608769 0.563059
vt 0.661741 0.529781
vt 0.510283 0.505599
vt 0.462112 0.514742
vt 0.481518 0.400373
vt 0.454687 0.406831
vt 0.460162 0.291538
vt 0.443335 0.292860
vt 0.445620 0.202474
vt 0.431662 0.202621
vt 0.413450 0.063927
vt 0.409954 0.031557
vt 0.560991 0.483407
vt 0.511780 0.392696
vt 0.606156 0.458138
vt 0.708018 0.492528
vt 0.652074 0.421825
vt 0.754977 0.446057
vt 0.686153 0.385687
vt 0.555376 0.369254
vt 0.586450 0.343310
vt 0.621812 0.315611
vt 0.798201 0.389953
vt 0.138994 0.444867
vt 0.734368 0.333916
vt 0.184793 0.386784
vt 0.663388 0.273247
vt 0.235710 0.321269
vt 0.478794 0.289513
vt 0.505312 0.274982
vt 0.535188 0.253056
vt 0.558100 0.229893
vt 0.582483 0.195944
vt 0.290684 0.235774
vt 0.456027 0.199658
vt 0.466982 0.195815
vt 0.485460 0.179911
vt 0.502658 0.158437
vt 0.519067 0.132723
vt 0.330173 0.162946
vt 0.418048 0.062354
vt 0.408081 0.033627
vt 0.422209 0.061254
vt 0.406712 0.035582
vt 0.426645 0.059419
vt 0.406093 0.038522
vt 0.671781 0.721750
vt 0.642063 0.753916
vt 0.720385 0.688581
vt 0.772416 0.630867
vt 0.807344 0.582115
vt 0.842266 0.532796
vt 0.891070 0.474954
vt 0.073736 0.528622
vt 0.564691 0.870456
vt 0.573835 0.832420
vt 0.574816 0.943262
vt 0.549506 0.794045
vt 0.510054 0.794187
vt 0.465708 0.784172
vt 0.643724 0.873470
vt 0.621136 0.831227
vt 0.663491 0.917145
vt 0.651361 0.804950
vt 0.704927 0.829098
vt 0.745205 0.885467
vt 0.576291 0.748091
vt 0.537821 0.701325
vt 0.467065 0.695944
vt 0.622470 0.906694
vt 0.696083 0.877781
vt 0.524401 0.914665
vt 0.458070 0.908951
vt 0.760245 0.826865
vt 0.808583 0.784962
vt 0.857074 0.725766
vt 0.895868 0.648912
vt 0.922442 0.591136
vt 0.964252 0.536945
vt 0.022347 0.587554
vt 0.572377 0.911089
vt 0.655555 0.897364
vt 0.727740 0.855847
vt 0.429154 0.057407
vt 0.406335 0.040648
vt 0.432261 0.054332
vt 0.383725 0.064286
vt 0.408527 0.042956
vt 0.407555 0.064259
vt 0.413262 0.031497
vt 0.377936 0.766488
vt 0.375995 0.808189
vt 0.427740 0.741436
vt 0.412370 0.848212
vt 0.335674 0.821793
vt 0.317623 0.859300
vt 0.301880 0.804714
vt 0.262565 0.829157
vt 0.288942 0.777544
vt 0.337902 0.737234
vt 0.352306 0.661672
vt 0.226575 0.776344
vt 0.296944 0.892694
vt 0.241930 0.865369
vt 0.376044 0.946348
vt 0.182441 0.832353
vt 0.192744 0.739539
vt 0.140808 0.802775
vt 0.150011 0.692948
vt 0.101792 0.760930
vt 0.118515 0.645711
vt 0.060365 0.693059
vt 0.090461 0.604681
vt 0.034299 0.647125
vt 0.273043 0.643350
vt 0.228911 0.600737
vt 0.191255 0.568377
vt 0.149886 0.534022
vt 0.388441 0.589810
vt 0.326553 0.574899
vt 0.275608 0.549330
vt 0.413942 0.511253
vt 0.427247 0.405094
vt 0.426700 0.295469
vt 0.418335 0.206427
vt 0.402582 0.066150
vt 0.415563 0.033875
vt 0.363025 0.496003
vt 0.396790 0.402810
vt 0.317865 0.478077
vt 0.230632 0.521193
vt 0.271115 0.451311
vt 0.184009 0.486622
vt 0.235334 0.424177
vt 0.351486 0.388123
vt 0.318064 0.369602
vt 0.280786 0.350935
vt 0.408343 0.297779
vt 0.379804 0.289944
vt 0.346912 0.276318
vt 0.320562 0.260463
vt 0.407670 0.206639
vt 0.396194 0.206043
vt 0.374377 0.196381
vt 0.352445 0.181494
vt 0.398340 0.066429
vt 0.415429 0.036664
vt 0.394630 0.066991
vt 0.415018 0.039015
vt 0.390296 0.066952
vt 0.413382 0.041534
vt 0.276794 0.719605
vt 0.302507 0.747416
vt 0.234627 0.691796
vt 0.187900 0.645752
vt 0.154874 0.607753
vt 0.120896 0.570298
vt 0.362352 0.856501
vt 0.358689 0.820751
vt 0.341037 0.920478
vt 0.384212 0.787618
vt 0.421701 0.790666
vt 0.293391 0.849178
vt 0.316875 0.815752
vt 0.271780 0.881827
vt 0.292439 0.791032
vt 0.246942 0.808111
vt 0.212623 0.849916
vt 0.361746 0.744082
vt 0.398447 0.700935
vt 0.306393 0.879822
vt 0.250714 0.847414
vt 0.393166 0.903559
vt 0.203188 0.804465
vt 0.165613 0.771677
vt 0.125248 0.727549
vt 0.088918 0.669724
vt 0.062028 0.626236
vt 0.349417 0.892106
vt 0.280758 0.867277
vt 0.227525 0.828158
vt 0.387518 0.066078
vt 0.411709 0.042869
s 1
usemtl Material
f 85/98/1 2/2/2 4/4/3 86/99/4
f 82/95/5 83/96/6 5/5/7 6/6/8
f 88/101/9 89/102/10 7/7/11 8/8/12
f 92/105/13 91/104/14 9/9/15 14/14/16
f 94/107/17 95/108/18 12/12/19 11/11/20
f 76/88/21 75/87/22 14/14/16 9/9/15
f 86/99/4 4/4/3 13/13/23 87/100/24
f 108/122/25 98/111/26 16/16/27 90/103/28
f 107/121/29 84/97/30 17/17/31 99/112/32
f 99/112/32 17/17/31 18/18/33 100/113/34
f 109/123/35 101/114/36 19/19/37 93/106/38
f 95/108/18 96/109/39 20/20/40 12/12/19
f 101/114/36 14/14/16 21/21/41 102/115/42
f 102/115/42 21/21/41 23/23/43 103/116/44
f 103/116/44 23/23/43 25/25/45 104/117/46
f 104/117/46 25/25/45 27/27/47 105/118/48
f 105/118/48 27/27/47 29/29/49 106/119/50
f 75/87/22 12/12/19 31/33/51 77/89/52
f 77/89/52 31/33/51 32/34/53 78/90/54
f 78/90/54 32/34/53 33/35/55 79/91/56
f 79/91/56 33/35/55 34/36/57 80/92/58
f 80/92/58 34/36/57 35/37/59 81/93/60
f 12/12/19 20/20/40 37/40/61 36/39/62
f 12/12/19 36/39/62 38/41/63 31/33/51
f 31/33/51 38/41/63 39/42/64 32/34/53
f 36/39/62 37/40/61 41/44/65 40/43/66
f 40/43/66 41/44/65 43/46/67 42/45/68
f 42/45/68 43/46/67 45/48/69 44/47/70
f 44/47/70 45/48/69 47/50/71 46/49/72
f 36/39/62 40/43/66 49/53/73 38/41/63
f 40/43/66 42/45/68 50/54/74 49/53/73
f 38/41/63 49/53/73 51/55/75 39/42/64
f 32/34/53 39/42/64 52/56/76 33/35/55
f 39/42/64 51/55/75 53/57/77 52/56/76
f 33/35/55 52/56/76 54/58/78 34/36/57
f 52/56/76 53/57/77 55/59/79 54/58/78
f 49/53/73 50/54/74 56/60/80 51/55/75
f 51/55/75 56/60/80 57/61/81 53/57/77
f 53/57/77 57/61/81 58/62/82 55/59/79
f 34/36/57 54/58/78 59/63/83 35/37/59
f 54/58/78 55/59/79 60/65/84 59/63/83
f 55/59/79 58/62/82 61/67/85 60/65/84
f 42/45/68 44/47/70 62/69/86 50/54/74
f 50/54/74 62/69/86 63/70/87 56/60/80
f 56/60/80 63/70/87 64/71/88 57/61/81
f 57/61/81 64/71/88 65/72/89 58/62/82
f 58/62/82 65/72/89 66/73/90 61/67/85
f 44/47/70 46/49/72 67/75/91 62/69/86
f 62/69/86 67/75/91 68/76/92 63/70/87
f 63/70/87 68/76/92 69/77/93 64/71/88
f 64/71/88 69/77/93 70/78/94 65/72/89
f 65/72/89 70/78/94 71/79/95 66/73/90
f 46/49/72 48/51/96 72/81/97 67/75/91
f 67/75/91 72/81/97 73/83/98 68/76/92
f 68/76/92 73/83/98 74/85/99 69/77/93
f 27/27/47 80/92/58 81/93/60 29/29/49
f 25/25/45 79/91/56 80/92/58 27/27/47
f 23/23/43 78/90/54 79/91/56 25/25/45
f 21/21/41 77/89/52 78/90/54 23/23/43
f 14/14/16 75/87/22 77/89/52 21/21/41
f 11/11/20 12/12/19 75/87/22 76/88/21
f 97/110/100 15/15/101 84/97/30 107/121/29
f 4/4/3 2/2/2 83/96/6 82/95/5
f 3/3/102 86/99/4 87/100/24 10/10/103
f 1/1/104 85/98/1 86/99/4 3/3/102
f 97/110/100 108/122/25 90/103/28 15/15/101
f 6/6/8 5/5/7 89/102/10 88/101/9
f 98/111/26 109/123/35 93/106/38 16/16/27
f 8/8/12 7/7/11 91/104/14 92/105/13
f 3/3/102 10/10/103 96/109/39 95/108/18
f 1/1/104 3/3/102 95/108/18 94/107/17
f 8/8/12 92/105/13 109/123/35 98/111/26
f 6/6/8 88/101/9 108/122/25 97/110/100
f 6/6/8 97/110/100 107/121/29 82/95/5
f 28/28/105 105/118/48 106/119/50 30/31/106
f 26/26/107 104/117/46 105/118/48 28/28/105
f 24/24/108 103/116/44 104/117/46 26/26/107
f 22/22/109 102/115/42 103/116/44 24/24/108
f 19/19/37 101/114/36 102/115/42 22/22/109
f 92/105/13 14/14/16 101/114/36 109/123/35
f 4/4/3 99/112/32 100/113/34 13/13/23
f 82/95/5 107/121/29 99/112/32 4/4/3
f 88/101/9 8/8/12 98/111/26 108/122/25
f 46/49/72 47/50/71 112/129/110 48/51/96
f 69/77/93 74/85/99 110/124/111 70/78/94
f 70/78/94 110/124/111 111/126/112 71/79/95
f 48/52/96 112/130/110 111/128/112 110/125/111 74/86/99 73/84/98 72/82/97
f 179/201/113 180/202/114 116/134/115 114/132/116
f 176/198/117 118/136/118 117/135/119 177/199/120
f 181/203/121 120/138/122 119/137/123 182/204/124
f 185/207/125 124/142/126 121/139/127 184/206/128
f 187/209/129 122/140/130 123/141/131 188/210/132
f 171/193/133 121/139/127 124/142/126 170/192/134
f 180/202/114 87/100/24 13/13/23 116/134/115
f 198/220/135 183/205/136 126/144/137 190/212/138
f 197/219/139 191/213/140 127/145/141 178/200/142
f 191/213/140 100/113/34 18/18/33 127/145/141
f 199/221/143 186/208/144 128/146/145 192/214/146
f 188/210/132 123/141/131 20/20/40 96/109/39
f 192/214/146 193/215/147 129/147/148 124/142/126
f 193/215/147 194/216/149 131/149/150 129/147/148
f 194/216/149 195/217/151 133/151/152 131/149/150
f 195/217/151 196/218/153 135/153/154 133/151/152
f 196/218/153 106/120/50 29/30/49 135/153/154
f 170/192/134 172/194/155 137/155/156 123/141/131
f 172/194/155 173/195/157 138/156/158 137/155/156
f 173/195/157 174/196/159 139/157/160 138/156/158
f 174/196/159 175/197/161 140/158/162 139/157/160
f 175/197/161 81/94/60 35/38/59 140/158/162
f 123/141/131 141/159/163 37/40/61 20/20/40
f 123/141/131 137/155/156 142/160/164 141/159/163
f 137/155/156 138/156/158 143/161/165 142/160/164
f 141/159/163 144/162/166 41/44/65 37/40/61
f 144/162/166 145/163/167 43/46/67 41/44/65
f 145/163/167 146/164/168 45/48/69 43/46/67
f 146/164/168 147/165/169 47/50/71 45/48/69
f 141/159/163 142/160/164 149/168/170 144/162/166
f 144/162/166 149/168/170 150/169/171 145/163/167
f 142/160/164 143/161/165 151/170/172 149/168/170
f 138/156/158 139/157/160 152/171/173 143/161/165
f 143/161/165 152/171/173 153/172/174 151/170/172
f 139/157/160 140/158/162 154/173/175 152/171/173
f 152/171/173 154/173/175 155/174/176 153/172/174
f 149/168/170 151/170/172 156/175/177 150/169/171
f 151/170/172 153/172/174 157/176/178 156/175/177
f 153/172/174 155/174/176 158/177/179 157/176/178
f 140/158/162 35/38/59 59/64/83 154/173/175
f 154/173/175 59/64/83 60/66/84 155/174/176
f 155/174/176 60/66/84 61/68/85 158/177/179
f 145/163/167 150/169/171 159/178/180 146/164/168
f 150/169/171 156/175/177 160/179/181 159/178/180
f 156/175/177 157/176/178 161/180/182 160/179/181
f 157/176/178 158/177/179 162/181/183 161/180/182
f 158/177/179 61/68/85 66/74/90 162/181/183
f 146/164/168 159/178/180 163/182/184 147/165/169
f 159/178/180 160/179/181 164/183/185 163/182/184
f 160/179/181 161/180/182 165/184/186 164/183/185
f 161/180/182 162/181/183 166/185/187 165/184/186
f 162/181/183 66/74/90 71/80/95 166/185/187
f 147/165/169 163/182/184 167/186/188 148/166/189
f 163/182/184 164/183/185 168/188/190 167/186/188
f 164/183/185 165/184/186 169/190/191 168/188/190
f 135/153/154 29/30/49 81/94/60 175/197/161
f 133/151/152 135/153/154 175/197/161 174/196/159
f 131/149/150 133/151/152 174/196/159 173/195/157
f 129/147/148 131/149/150 173/195/157 172/194/155
f 124/142/126 129/147/148 172/194/155 170/192/134
f 122/140/130 171/193/133 170/192/134 123/141/131
f 189/211/192 197/219/139 178/200/142 125/143/193
f 116/134/115 176/198/117 177/199/120 114/132/116
f 115/133/194 10/10/103 87/100/24 180/202/114
f 113/131/195 115/133/194 180/202/114 179/201/113
f 189/211/192 125/143/193 183/205/136 198/220/135
f 118/136/118 181/203/121 182/204/124 117/135/119
f 190/212/138 126/144/137 186/208/144 199/221/143
f 120/138/122 185/207/125 184/206/128 119/137/123
f 115/133/194 188/210/132 96/109/39 10/10/103
f 113/131/195 187/209/129 188/210/132 115/133/194
f 120/138/122 190/212/138 199/221/143 185/207/125
f 118/136/118 189/211/192 198/220/135 181/203/121
f 118/136/118 176/198/117 197/219/139 189/211/192
f 136/154/196 30/32/106 106/120/50 196/218/153
f 134/152/197 136/154/196 196/218/153 195/217/151
f 132/150/198 134/152/197 195/217/151 194/216/149
f 130/148/199 132/150/198 194/216/149 193/215/147
f 128/146/145 130/148/199 193/215/147 192/214/146
f 185/207/125 199/221/143 192/214/146 124/142/126
f 116/134/115 13/13/23 100/113/34 191/213/140
f 176/198/117 116/134/115 191/213/140 197/219/139
f 181/203/121 198/220/135 190/212/138 120/138/122
f 147/165/169 148/166/189 112/129/110 47/50/71
f 165/184/186 166/185/187 200/222/200 169/190/191
f 166/185/187 71/80/95 111/127/112 200/222/200
f 148/167/189 167/187/188 168/189/190 169/191/191 200/223/200 111/128/112 112/130/110
